<svg aria-hidden="true" style="position: absolute; width: 0; height: 0; overflow: hidden;" version="1.1" xmlns="http://www.w3.org/2000/svg" xmlns:xlink="http://www.w3.org/1999/xlink">
<defs>
<symbol id="icon-wallet" viewBox="0 0 38 32">
<path d="M32.509 7.5c0.276 0 0.5-0.224 0.5-0.5v-1.665c0-0.903-0.735-1.638-1.638-1.638h-2.687l-0.613-1.809c-0.086-0.255-0.36-0.397-0.619-0.318l-14.553 4.424c-0.264 0.081-0.413 0.36-0.333 0.624 0.066 0.216 0.264 0.354 0.479 0.354 0.048 0 0.097-0.007 0.146-0.021l14.089-4.284 1.343 3.965c0.089 0.262 0.375 0.404 0.634 0.313 0.262-0.088 0.402-0.373 0.313-0.634l-0.547-1.615h2.349c0.352 0 0.638 0.286 0.638 0.638v1.666c-0.001 0.276 0.223 0.5 0.499 0.5zM36.5 15c-0.276 0-0.5 0.224-0.5 0.5s0.224 0.5 0.5 0.5c0.351 0 0.5 0.149 0.5 0.5v6c0 0.351-0.149 0.5-0.5 0.5h-8c-0.351 0-0.5-0.149-0.5-0.5v-5c0-0.351 0.149-0.5 0.5-0.5h6c0.276 0 0.5-0.224 0.5-0.5v-6c0-0.911-0.589-1.5-1.5-1.5h-30.5c-1.233 0-2-0.767-2-2s0.767-2 2-2h5.076l-3.026 0.998c-0.262 0.086-0.405 0.369-0.319 0.631 0.069 0.21 0.265 0.343 0.475 0.343 0.052 0 0.104-0.008 0.157-0.025l18.119-5.973c0.262-0.087 0.405-0.369 0.318-0.632-0.086-0.262-0.369-0.405-0.632-0.318l-12.1 3.99c-0.023-0.004-0.044-0.014-0.068-0.014h-8c-1.794 0-3 1.206-3 3v22c0 1.794 1.206 3 3 3h30.5c0.911 0 1.5-0.589 1.5-1.5v-5c0-0.276-0.224-0.5-0.5-0.5s-0.5 0.224-0.5 0.5v5c0 0.351-0.149 0.5-0.5 0.5h-30.5c-1.233 0-2-0.767-2-2v-19.688c0.513 0.433 1.192 0.688 2 0.688h30.5c0.351 0 0.5 0.149 0.5 0.5v5.5h-5.5c-0.911 0-1.5 0.589-1.5 1.5v5c0 0.911 0.589 1.5 1.5 1.5h8c0.911 0 1.5-0.589 1.5-1.5v-6c0-0.911-0.589-1.5-1.5-1.5zM31 20c0 0.552 0.448 1 1 1s1-0.448 1-1c0-0.552-0.448-1-1-1s-1 0.448-1 1z"></path>
</symbol>
<symbol id="icon-expand" viewBox="0 0 32 32">
<path d="M32 30.5v-29c0-0.827-0.673-1.5-1.5-1.5h-29c-0.827 0-1.5 0.673-1.5 1.5v9c0 0.276 0.224 0.5 0.5 0.5s0.5-0.224 0.5-0.5v-9c0-0.276 0.225-0.5 0.5-0.5h29c0.275 0 0.5 0.224 0.5 0.5v29c0 0.276-0.225 0.5-0.5 0.5h-9c-0.276 0-0.5 0.224-0.5 0.5s0.224 0.5 0.5 0.5h9c0.827 0 1.5-0.673 1.5-1.5zM1.5 13c-0.827 0-1.5 0.673-1.5 1.5v16c0 0.827 0.673 1.5 1.5 1.5h16c0.827 0 1.5-0.673 1.5-1.5v-16.793l7-7v6.793c0 0.276 0.224 0.5 0.5 0.5s0.5-0.224 0.5-0.5v-8c0-0.276-0.224-0.5-0.5-0.5h-8c-0.276 0-0.5 0.224-0.5 0.5s0.224 0.5 0.5 0.5h6.792l-7 7h-16.792zM18 30.5c0 0.276-0.225 0.5-0.5 0.5h-16c-0.275 0-0.5-0.224-0.5-0.5v-16c0-0.276 0.225-0.5 0.5-0.5h16.5v16.5z"></path>
</symbol>
<symbol id="icon-gears" viewBox="0 0 42 32">
<path d="M3.692 21.72c0.176 0.042 0.415 0.259 0.484 0.457l0.35 0.844c0.079 0.162 0.064 0.483-0.030 0.637l-1.397 2.284c-0.299 0.49-0.237 1.184 0.165 1.634l1.183 1.182c0.412 0.366 1.139 0.432 1.613 0.145l2.284-1.397c0.143-0.088 0.45-0.119 0.665-0.018l0.843 0.348c0.17 0.059 0.387 0.297 0.429 0.473l0.627 2.604c0.133 0.552 0.66 1.006 1.226 1.058 0 0 0.347 0.032 0.867 0.032s0.867-0.032 0.868-0.032c0.565-0.051 1.092-0.506 1.225-1.058l0.628-2.604c0.042-0.175 0.258-0.414 0.456-0.483l0.844-0.35c0.149-0.073 0.494-0.058 0.637 0.030l2.284 1.397c0.201 0.123 0.441 0.188 0.696 0.188 0.345 0 0.679-0.121 0.938-0.352l1.182-1.183c0.382-0.429 0.444-1.123 0.145-1.613l-1.397-2.284c-0.094-0.154-0.109-0.475-0.018-0.665l0.348-0.843c0.059-0.17 0.297-0.387 0.473-0.429l2.604-0.627c0.552-0.133 1.006-0.66 1.058-1.226 0 0 0.032-0.347 0.032-0.867s-0.032-0.867-0.032-0.868c-0.051-0.565-0.506-1.092-1.058-1.226l-2.603-0.626c-0.176-0.042-0.415-0.259-0.484-0.457l-0.35-0.844c-0.079-0.162-0.064-0.483 0.030-0.637l1.397-2.284c0.299-0.49 0.237-1.184-0.165-1.634l-1.183-1.182c-0.413-0.367-1.141-0.433-1.613-0.145l-2.284 1.397c-0.143 0.087-0.451 0.12-0.665 0.018l-0.843-0.348c-0.17-0.059-0.386-0.297-0.428-0.473l-0.628-2.604c-0.133-0.552-0.66-1.006-1.226-1.058-0.002 0.001-0.349-0.031-0.869-0.031s-0.867 0.032-0.868 0.032c-0.565 0.051-1.092 0.506-1.226 1.058l-0.626 2.602c-0.042 0.176-0.259 0.415-0.457 0.484l-0.844 0.35c-0.15 0.073-0.494 0.057-0.637-0.030l-2.283-1.397c-0.473-0.288-1.185-0.238-1.634 0.164l-1.182 1.183c-0.382 0.429-0.444 1.123-0.145 1.613l1.397 2.284c0.094 0.154 0.109 0.475 0.018 0.665l-0.348 0.843c-0.059 0.17-0.297 0.387-0.473 0.429l-2.604 0.627c-0.552 0.133-1.006 0.66-1.058 1.226 0.002 0-0.030 0.347-0.030 0.867s0.032 0.867 0.032 0.868c0.051 0.565 0.506 1.092 1.058 1.226l2.602 0.626zM1 19c0-0.458 0.027-0.767 0.028-0.777 0.012-0.135 0.165-0.312 0.296-0.344l2.604-0.627c0.505-0.122 1.014-0.584 1.172-1.047l0.324-0.787c0.228-0.467 0.196-1.153-0.075-1.597l-1.397-2.283c-0.067-0.111-0.048-0.331 0.018-0.406l1.141-1.142c0.091-0.081 0.323-0.101 0.427-0.038l2.284 1.397c0.433 0.265 1.175 0.283 1.568 0.088l0.788-0.326c0.491-0.169 0.953-0.678 1.075-1.184l0.626-2.603c0.032-0.132 0.209-0.285 0.344-0.297 0.010 0 0.319-0.027 0.777-0.027s0.767 0.027 0.777 0.028c0.135 0.012 0.312 0.165 0.344 0.296l0.627 2.603c0.122 0.505 0.583 1.015 1.047 1.173l0.787 0.324c0.457 0.224 1.165 0.189 1.597-0.075l2.283-1.397c0.104-0.063 0.35-0.030 0.406 0.018l1.142 1.141c0.086 0.097 0.105 0.316 0.038 0.427l-1.397 2.284c-0.271 0.443-0.303 1.13-0.088 1.568l0.326 0.788c0.169 0.491 0.678 0.953 1.184 1.075l2.603 0.626c0.132 0.032 0.285 0.209 0.297 0.344 0 0.010 0.027 0.319 0.027 0.777s-0.027 0.767-0.028 0.777c-0.012 0.135-0.165 0.312-0.296 0.344l-2.604 0.627c-0.505 0.122-1.014 0.584-1.172 1.047l-0.324 0.787c-0.228 0.467-0.196 1.153 0.075 1.597l1.397 2.283c0.067 0.111 0.048 0.331-0.018 0.406l-1.141 1.142c-0.054 0.048-0.152 0.079-0.251 0.079-0.069 0-0.133-0.015-0.175-0.041l-2.284-1.397c-0.432-0.264-1.174-0.283-1.568-0.088l-0.788 0.326c-0.491 0.169-0.953 0.679-1.074 1.184l-0.627 2.603c-0.032 0.132-0.209 0.285-0.344 0.297-0.011 0-0.32 0.027-0.778 0.027s-0.767-0.027-0.777-0.028c-0.135-0.012-0.312-0.165-0.344-0.296l-0.627-2.604c-0.122-0.505-0.584-1.014-1.047-1.172l-0.787-0.324c-0.204-0.1-0.451-0.152-0.715-0.152-0.329 0-0.642 0.081-0.882 0.228l-2.283 1.397c-0.104 0.063-0.351 0.029-0.406-0.018l-1.142-1.142c-0.086-0.097-0.105-0.316-0.038-0.427l1.397-2.284c0.271-0.443 0.303-1.13 0.088-1.568l-0.326-0.788c-0.169-0.491-0.678-0.953-1.184-1.075l-2.603-0.626c-0.132-0.032-0.285-0.209-0.297-0.344 0-0.010-0.027-0.319-0.027-0.777zM13 24.5c3.033 0 5.5-2.467 5.5-5.5s-2.467-5.5-5.5-5.5-5.5 2.467-5.5 5.5 2.467 5.5 5.5 5.5zM13 14.5c2.481 0 4.5 2.019 4.5 4.5s-2.019 4.5-4.5 4.5-4.5-2.019-4.5-4.5 2.019-4.5 4.5-4.5zM27.477 5.314c-0.040 0.061-0.185 0.138-0.259 0.138l-1.861-0.018c-0.452 0-0.905 0.321-1.053 0.746 0 0-0.082 0.233-0.172 0.59s-0.128 0.601-0.128 0.601c-0.070 0.451 0.181 0.95 0.584 1.161l1.641 0.86c0.063 0.033 0.156 0.172 0.166 0.273l0.093 0.635c0.015 0.070-0.033 0.23-0.084 0.28l-1.322 1.296c-0.331 0.324-0.418 0.878-0.19 1.313l0.599 1c0.253 0.372 0.801 0.562 1.231 0.428l1.824-0.558c0.099 0 0.198 0.038 0.254 0.083l0.515 0.38c0.060 0.040 0.139 0.187 0.138 0.259l-0.018 1.852c-0.004 0.456 0.316 0.913 0.746 1.063 0 0 0.233 0.082 0.59 0.172s0.601 0.128 0.601 0.128c0.026 0.004 0.13 0.012 0.156 0.012 0.408 0 0.822-0.245 1.005-0.596l0.86-1.641c0.033-0.063 0.172-0.156 0.273-0.166l0.663-0.096c0.1 0 0.218 0.052 0.251 0.086l1.296 1.322c0.315 0.322 0.846 0.437 1.313 0.19l0.999-0.599c0.382-0.26 0.567-0.79 0.429-1.231l-0.552-1.767c-0.021-0.068 0.012-0.232 0.078-0.311l0.38-0.515c0.040-0.061 0.185-0.138 0.259-0.138l1.861 0.018c0.452 0 0.905-0.321 1.053-0.746 0 0 0.082-0.233 0.172-0.59s0.128-0.601 0.128-0.601c0.070-0.451-0.181-0.95-0.584-1.161l-1.641-0.86c-0.063-0.033-0.156-0.172-0.166-0.273l-0.092-0.633c-0.015-0.070 0.033-0.23 0.084-0.28l1.322-1.296c0.331-0.324 0.418-0.878 0.19-1.313l-0.599-1c-0.253-0.371-0.8-0.563-1.231-0.429l-1.825 0.558c-0.099 0-0.198-0.038-0.254-0.083l-0.515-0.38c-0.060-0.040-0.139-0.187-0.138-0.259l0.018-1.852c0.004-0.456-0.316-0.913-0.746-1.063 0 0-0.233-0.082-0.59-0.172s-0.601-0.128-0.601-0.128c-0.026-0.003-0.13-0.011-0.156-0.011-0.408 0-0.822 0.245-1.005 0.596l-0.86 1.641c-0.033 0.063-0.172 0.156-0.273 0.166l-0.663 0.095c-0.1 0-0.218-0.052-0.251-0.086l-1.296-1.322c-0.314-0.321-0.844-0.437-1.313-0.19l-1 0.598c-0.382 0.26-0.567 0.79-0.429 1.231l0.552 1.767c0.021 0.068-0.012 0.232-0.078 0.311l-0.379 0.515zM28.297 5.886l0.343-0.466c0.268-0.317 0.372-0.834 0.248-1.229l-0.551-1.766c-0.005-0.028 0.017-0.091 0.012-0.092l0.948-0.568 0.113 0.017 1.297 1.322c0.23 0.234 0.609 0.386 0.965 0.386 0.082 0 0.161-0.008 0.204-0.019l0.575-0.085c0.412-0.036 0.851-0.328 1.043-0.694l0.859-1.64c0.016-0.025 0.079-0.061 0.12-0.061 0.011 0.001 0.215 0.035 0.513 0.109s0.493 0.142 0.502 0.146c0.031 0.013 0.076 0.078 0.078 0.11l-0.018 1.852c-0.004 0.414 0.245 0.879 0.567 1.089l0.465 0.343c0.309 0.261 0.839 0.371 1.229 0.248l1.774-0.552c0.042 0 0.089 0.026 0.083 0.013l0.568 0.948c0.011 0.026 0 0.092-0.017 0.113l-1.322 1.297c-0.295 0.291-0.448 0.795-0.367 1.169l0.084 0.575c0.036 0.412 0.328 0.851 0.695 1.043l1.64 0.859c0.028 0.018 0.063 0.088 0.061 0.12-0.001 0.011-0.035 0.215-0.109 0.513s-0.142 0.493-0.146 0.502c-0.013 0.031-0.078 0.076-0.11 0.078l-1.862-0.018c-0.411 0-0.871 0.249-1.079 0.567l-0.342 0.465c-0.268 0.317-0.372 0.834-0.248 1.229l0.551 1.766c0.005 0.027-0.017 0.091-0.012 0.092l-0.948 0.568-0.113-0.017-1.297-1.322c-0.23-0.234-0.609-0.386-0.965-0.386-0.082 0-0.161 0.008-0.204 0.019l-0.575 0.085c-0.412 0.036-0.851 0.328-1.043 0.694l-0.859 1.64c-0.016 0.025-0.079 0.061-0.12 0.061v0c-0.011-0.001-0.215-0.035-0.513-0.109-0.297-0.075-0.493-0.142-0.502-0.146-0.031-0.013-0.076-0.078-0.078-0.11l0.018-1.852c0.004-0.414-0.245-0.879-0.567-1.089l-0.465-0.343c-0.222-0.188-0.549-0.3-0.875-0.3-0.126 0-0.246 0.018-0.355 0.052l-1.774 0.552c-0.043 0-0.090-0.023-0.083-0.013l-0.568-0.948c-0.011-0.026 0-0.092 0.017-0.113l1.322-1.297c0.295-0.291 0.448-0.795 0.367-1.169l-0.084-0.574c-0.036-0.412-0.328-0.851-0.695-1.043l-1.64-0.859c-0.028-0.018-0.063-0.088-0.061-0.12 0.001-0.011 0.035-0.215 0.109-0.513 0.075-0.297 0.142-0.493 0.146-0.502 0.013-0.031 0.078-0.076 0.11-0.078l1.862 0.018c0.411 0 0.871-0.249 1.079-0.567zM33 12c1.654 0 3-1.346 3-3s-1.346-3-3-3-3 1.346-3 3 1.346 3 3 3zM33 7c1.103 0 2 0.897 2 2s-0.897 2-2 2-2-0.897-2-2 0.897-2 2-2z"></path>
</symbol>
<symbol id="icon-pencil" viewBox="0 0 32 32">
<path d="M0 31.479c0 0.276 0.224 0.5 0.5 0.5h31.111c0.067 0 0.132-0.013 0.193-0.039s0.116-0.063 0.162-0.109c0.001-0.001 0.002-0.001 0.003-0.002 0.003-0.003 0.003-0.009 0.007-0.012 0.051-0.055 0.084-0.122 0.107-0.195 0.007-0.023 0.010-0.045 0.014-0.069 0.004-0.025 0.015-0.047 0.015-0.073 0-0.040-0.014-0.075-0.023-0.112-0.003-0.014 0.003-0.028-0.002-0.042l-3.16-9.715c-0.024-0.075-0.066-0.144-0.122-0.199l-17.117-17.118c-0.018-0.028-0.031-0.058-0.055-0.083l-3.739-3.739c-0.607-0.607-1.595-0.607-2.203 0l-5.235 5.235c-0.294 0.294-0.456 0.685-0.456 1.101s0.162 0.808 0.456 1.102l3.656 3.656c0.018 0.027 0.030 0.058 0.054 0.082l17.090 17.205c0.059 0.060 0.131 0.103 0.212 0.127l6.713 2h-27.681c-0.276-0.001-0.5 0.223-0.5 0.499zM6.362 10.161l15.687 15.486-0.577 2.002-16.245-16.353 1.135-1.135zM22.816 25l-15.748-15.545 2.437-2.437 15.607 15.648v2.334h-2.296zM25.735 21.875l-15.523-15.564 1.039-1.039 16.211 16.211-1.727 0.392zM22.988 26h2.624c0.276 0 0.5-0.224 0.5-0.5v-2.685l2.007-0.456 2.723 8.37-8.488-2.529 0.634-2.2zM1 6.808c0-0.149 0.058-0.288 0.163-0.394l5.235-5.235c0.217-0.217 0.57-0.218 0.789 0l3.372 3.372-6.023 6.023-3.372-3.372c-0.106-0.105-0.164-0.245-0.164-0.394z"></path>
</symbol>
<symbol id="icon-linegraph" viewBox="0 0 42 32">
<path d="M39 0c-1.654 0-3 1.346-3 3 0 0.888 0.396 1.679 1.011 2.229l-8.8 14.031c-0.371-0.165-0.78-0.26-1.211-0.26-0.868 0-1.644 0.376-2.193 0.967l-9.073-5.745c0.168-0.374 0.266-0.786 0.266-1.222 0-1.654-1.346-3-3-3s-3 1.346-3 3c0 0.904 0.41 1.706 1.044 2.256l-6.895 10.975c-0.354-0.148-0.742-0.231-1.149-0.231-1.654 0-3 1.346-3 3s1.346 3 3 3 3-1.346 3-3c0-0.888-0.395-1.678-1.010-2.228l6.904-10.99c0.343 0.138 0.715 0.218 1.106 0.218 0.859 0 1.629-0.367 2.176-0.947l9.078 5.748c-0.161 0.368-0.254 0.772-0.254 1.199 0 1.654 1.346 3 3 3s3-1.346 3-3c0-0.863-0.371-1.636-0.957-2.184l8.81-14.046c0.354 0.147 0.741 0.23 1.147 0.23 1.654 0 3-1.346 3-3s-1.346-3-3-3zM5 29c0 1.103-0.897 2-2 2s-2-0.897-2-2 0.897-2 2-2 2 0.897 2 2zM13 15c-1.103 0-2-0.897-2-2s0.897-2 2-2 2 0.897 2 2-0.897 2-2 2zM27 24c-1.103 0-2-0.897-2-2s0.897-2 2-2 2 0.897 2 2-0.897 2-2 2zM39 5c-1.103 0-2-0.897-2-2s0.897-2 2-2 2 0.897 2 2-0.897 2-2 2z"></path>
</symbol>
<symbol id="icon-happy" viewBox="0 0 32 32">
<path d="M16-0.034c-8.841 0-16.035 7.192-16.035 16.034s7.194 16.034 16.035 16.034 16.035-7.192 16.035-16.034-7.194-16.034-16.035-16.034zM16 30.966c-8.252 0-14.965-6.714-14.965-14.966s6.713-14.966 14.965-14.966 14.965 6.714 14.965 14.966-6.713 14.966-14.965 14.966zM10.5 16.5c1.103 0 2-0.897 2-2s-0.897-2-2-2-2 0.897-2 2 0.897 2 2 2zM10.5 13.5c0.551 0 1 0.448 1 1s-0.449 1-1 1-1-0.448-1-1 0.449-1 1-1zM21.5 16.5c1.103 0 2-0.897 2-2s-0.897-2-2-2-2 0.897-2 2 0.897 2 2 2zM21.5 13.5c0.551 0 1 0.448 1 1s-0.449 1-1 1-1-0.448-1-1 0.449-1 1-1zM22.823 22.075c-1.696 1.837-4.097 2.891-6.588 2.891-2.53 0-4.956-1.081-6.656-2.967-0.198-0.218-0.537-0.237-0.755-0.038-0.219 0.197-0.237 0.535-0.039 0.755 1.903 2.109 4.618 3.318 7.45 3.318 2.788 0 5.476-1.179 7.373-3.234 0.2-0.217 0.187-0.555-0.030-0.755s-0.555-0.188-0.755 0.030z"></path>
</symbol>
</defs>
</svg>
