<svg aria-hidden="true" style="position: absolute; width: 0; height: 0; overflow: hidden;" version="1.1" xmlns="http://www.w3.org/2000/svg" xmlns:xlink="http://www.w3.org/1999/xlink">
<defs>
<symbol id="icon-applepay" viewBox="0 0 32 32">
<path d="M5.851 11.045c-0.376 0.449-0.976 0.803-1.576 0.752-0.075-0.607 0.219-1.251 0.563-1.649 0.376-0.461 1.032-0.788 1.563-0.815 0.063 0.632-0.181 1.251-0.549 1.712zM6.393 11.917c-0.868-0.051-1.613 0.5-2.024 0.5-0.42 0-1.051-0.475-1.739-0.461-0.893 0.013-1.724 0.524-2.18 1.34-0.939 1.629-0.244 4.044 0.661 5.371 0.444 0.657 0.976 1.377 1.676 1.352 0.661-0.025 0.924-0.436 1.724-0.436 0.807 0 1.037 0.436 1.739 0.424 0.724-0.013 1.18-0.657 1.624-1.315 0.507-0.747 0.713-1.472 0.725-1.511-0.013-0.013-1.4-0.549-1.413-2.167-0.012-1.353 1.093-1.997 1.144-2.035-0.624-0.936-1.6-1.037-1.937-1.063zM11.413 10.085v9.852h1.513v-3.368h2.093c1.912 0 3.256-1.328 3.256-3.248 0-1.921-1.319-3.236-3.205-3.236zM12.927 11.375h1.744c1.312 0 2.061 0.707 2.061 1.952s-0.749 1.96-2.068 1.96h-1.739zM21.039 20.012c0.951 0 1.832-0.485 2.232-1.257h0.031v1.183h1.4v-4.904c0-1.421-1.125-2.339-2.856-2.339-1.607 0-2.793 0.929-2.837 2.205h1.363c0.112-0.607 0.668-1.004 1.431-1.004 0.925 0 1.444 0.436 1.444 1.239v0.543l-1.888 0.115c-1.756 0.107-2.707 0.833-2.707 2.097 0 1.276 0.981 2.123 2.388 2.123zM21.445 18.844c-0.807 0-1.32-0.392-1.32-0.992 0-0.62 0.495-0.98 1.439-1.037l1.68-0.107v0.556c0 0.923-0.773 1.58-1.799 1.58zM26.571 22.617c1.475 0 2.168-0.569 2.773-2.295l2.656-7.533h-1.537l-1.781 5.82h-0.031l-1.781-5.82h-1.581l2.561 7.173-0.137 0.436c-0.231 0.739-0.605 1.023-1.275 1.023-0.119 0-0.349-0.013-0.444-0.025v1.183c0.088 0.025 0.463 0.037 0.577 0.039z"></path>
</symbol>
<symbol id="icon-cashapp" viewBox="0 0 32 32">
<path fill="#00c244" style="fill: var(--color1, #00c244)" d="M31.453 4.627c-0.703-1.895-2.171-3.364-4.020-4.051l-0.047-0.015c-1.747-0.56-3.333-0.56-6.56-0.56h-9.68c-3.2 0-4.813 0-6.533 0.533-1.898 0.706-3.367 2.179-4.051 4.033l-0.015 0.047c-0.547 1.733-0.547 3.333-0.547 6.533v9.693c0 3.213 0 4.8 0.533 6.533 0.703 1.895 2.171 3.364 4.020 4.051l0.047 0.015c1.733 0.547 3.333 0.547 6.533 0.547h9.707c3.213 0 4.813 0 6.533-0.533 1.903-0.703 3.377-2.177 4.065-4.033l0.015-0.047c0.547-1.733 0.547-3.333 0.547-6.533v-9.667c0-3.213 0-4.813-0.547-6.547zM23.227 10.8l-1.24 1.24c-0.119 0.111-0.278 0.179-0.454 0.179-0.169 0-0.323-0.063-0.44-0.166l0.001 0.001c-1.151-0.977-2.652-1.571-4.293-1.573h-0c-1.293 0-2.587 0.427-2.587 1.613 0 1.2 1.387 1.6 2.987 2.2 2.8 0.933 5.12 2.107 5.12 4.853 0 2.987-2.32 5.040-6.107 5.267l-0.347 1.6c-0.064 0.299-0.326 0.52-0.64 0.52-0 0-0 0-0 0h-2.387l-0.12-0.013c-0.3-0.069-0.521-0.334-0.521-0.651 0-0.048 0.005-0.095 0.015-0.141l-0.001 0.004 0.373-1.693c-1.499-0.384-2.794-1.112-3.845-2.098l0.005 0.004v-0.013c-0.116-0.116-0.188-0.276-0.188-0.453s0.072-0.337 0.188-0.453l0-0 1.333-1.293c0.117-0.109 0.274-0.177 0.447-0.177s0.33 0.067 0.447 0.177l-0-0c1.213 1.147 2.84 1.787 4.52 1.76 1.733 0 2.893-0.733 2.893-1.893s-1.173-1.467-3.387-2.293c-2.347-0.84-4.573-2.027-4.573-4.8 0-3.227 2.68-4.8 5.853-4.947l0.333-1.64c0.064-0.292 0.32-0.507 0.626-0.507 0.005 0 0.010 0 0.015 0h2.373l0.133 0.013c0.347 0.080 0.573 0.413 0.493 0.76l-0.36 1.827c1.2 0.4 2.333 1.027 3.307 1.853l0.027 0.027c0.253 0.267 0.253 0.667 0 0.907z"></path>
</symbol>
<symbol id="icon-paypal" viewBox="0 0 32 32">
<path fill="#00457c" style="fill: var(--color2, #00457c)" d="M9.211 32h-4.139c-0.885 0-1.448-0.705-1.248-1.573l0.199-0.899h2.761c0.888 0 1.781-0.711 1.976-1.576l1.419-6.123c0.2-0.864 1.088-1.573 1.973-1.573h1.177c5.052 0 8.979-1.039 11.787-3.12s4.213-4.8 4.213-8.18c0-1.5-0.26-2.74-0.784-3.719 0-0.021-0.021-0.041-0.021-0.061l0.18 0.1c1 0.62 1.76 1.419 2.281 2.419 0.539 1 0.797 2.24 0.797 3.721 0 3.38-1.399 6.099-4.219 8.18-2.8 2.060-6.74 3.099-11.779 3.099h-1.2c-0.88 0-1.779 0.7-1.979 1.581l-1.42 6.14c-0.199 0.86-1.080 1.56-1.96 1.56zM5.641 28.407h-4.14c-0.884 0-1.445-0.705-1.248-1.573l5.831-25.257c0.201-0.871 1.087-1.576 1.975-1.576h8.62c1.86 0 3.479 0.131 4.864 0.385 1.38 0.252 2.56 0.692 3.579 1.32 0.981 0.62 1.763 1.429 2.263 2.424 0.519 0.997 0.779 2.24 0.779 3.729 0 3.38-1.401 6.099-4.219 8.159-2.8 2.081-6.741 3.101-11.781 3.101h-1.177c-0.88 0-1.771 0.699-1.971 1.559l-1.415 6.119c-0.199 0.861-1.089 1.563-1.98 1.563zM15.569 5.248h-1.352c-0.888 0-1.776 0.705-1.973 1.571l-1.24 5.36c-0.2 0.864 0.36 1.572 1.24 1.572h1.021c2.219 0 3.96-0.457 5.2-1.361 1.239-0.915 1.86-2.205 1.86-3.883 0-1.107-0.401-1.927-1.2-2.453-0.8-0.539-2-0.807-3.581-0.807z"></path>
</symbol>
<symbol id="icon-venmo" viewBox="0 0 32 32">
<path fill="#3d95ce" style="fill: var(--color3, #3d95ce)" d="M5.253 12.96c0.227 0.36 0.32 0.72 0.32 1.187 0 1.48-1.267 3.4-2.293 4.76h-2.333l-0.947-5.627 2.053-0.2 0.493 4c0.467-0.747 1.040-1.933 1.040-2.747 0-0.44-0.080-0.747-0.2-1zM7.92 15.427c0.373 0 1.333-0.173 1.333-0.707 0-0.267-0.187-0.4-0.4-0.4-0.387 0-0.88 0.467-0.933 1.107zM7.88 16.493c0 0.667 0.36 0.933 0.853 0.933 0.533 0 1.027-0.133 1.693-0.467l-0.253 1.68c-0.467 0.227-1.187 0.373-1.893 0.373-1.773 0-2.413-1.067-2.413-2.427 0-1.747 1.040-3.6 3.173-3.6 1.173 0 1.84 0.653 1.84 1.573 0 1.467-1.907 1.933-3 1.933zM16.8 14.267c0 0.227-0.040 0.533-0.067 0.747l-0.613 3.893h-2l0.56-3.573 0.040-0.4c0-0.267-0.16-0.32-0.347-0.32-0.267 0-0.533 0.12-0.693 0.2l-0.64 4.093h-2l0.907-5.827h1.733l0.027 0.467c0.413-0.267 0.96-0.573 1.72-0.573 1.013 0 1.373 0.533 1.373 1.293zM22.733 13.613c0.573-0.4 1.107-0.64 1.867-0.64 1.013 0 1.373 0.533 1.373 1.307-0.006 0.264-0.030 0.517-0.071 0.764l0.004-0.031-0.613 3.893h-2l0.573-3.64 0.027-0.293c0-0.293-0.16-0.36-0.36-0.36-0.24 0-0.493 0.107-0.667 0.2l-0.64 4.093h-2l0.573-3.653 0.027-0.28c0-0.293-0.16-0.36-0.36-0.36-0.267 0-0.52 0.12-0.693 0.2l-0.627 4.080h-2.013l0.92-5.813h1.707l0.067 0.48c0.4-0.293 0.933-0.587 1.653-0.587 0.64 0 1.040 0.267 1.253 0.64zM29.947 15.307c0-0.467-0.12-0.8-0.467-0.8-0.8 0-0.96 1.4-0.96 2.107 0 0.547 0.147 0.88 0.507 0.88 0.747 0 0.92-1.467 0.92-2.187zM26.48 16.533c0-1.84 0.987-3.56 3.213-3.56 1.693 0 2.307 1 2.307 2.373 0 1.813-0.96 3.693-3.253 3.693-1.693 0-2.267-1.107-2.267-2.507z"></path>
</symbol>
</defs>
</svg>
